<svg width="259" height="69" viewBox="0 0 259 69" fill="none" xmlns="http://www.w3.org/2000/svg">
<g clip-path="url(#clip0_2299_395)">
<path d="M0 39.054C5.91046 39.054 11.8209 39.054 17.7314 39.054C18.6549 39.054 19.7631 39.054 20.6866 39.054L20.6866 45.9023L14.5914 45.9023L14.5914 59.0437L20.6866 59.0437L20.6866 65.8921L-6.62513e-09 65.8921L-4.93458e-09 59.0437L6.27986 59.0437L6.27986 46.0874L-1.73624e-09 46.0874L0 39.054Z" fill="#61C8C2"/>
<path d="M4.61754 -7.62825e-06C5.54105 0.185082 6.46456 0.185082 7.38807 0.370173C14.0373 1.29562 19.7631 4.07197 24.75 8.69923C29.9217 13.5116 33.2463 19.4345 34.3545 26.2828C34.9086 28.8741 34.9086 31.4653 34.7239 34.2417L27.1512 34.2417C27.1512 33.8715 27.1512 33.3162 27.1512 32.946C27.3359 25.9126 25.1194 19.9897 20.1325 14.9923C16.2538 10.7352 11.2668 8.32905 5.54105 7.77378C3.87874 7.58869 2.03172 7.77378 0.369404 7.77378C0.184702 7.77378 0.184702 7.77378 -1.919e-09 7.77378C-1.27934e-09 5.18252 -6.39668e-10 2.59125 0 -7.62939e-06L4.61754 -7.62825e-06Z" fill="#61C8C2"/>
<path d="M0 11.8457C1.10821 11.8457 2.40112 11.6607 3.50933 11.6607C11.0821 12.0308 16.8079 15.7326 20.6866 22.2108C22.7183 25.7275 23.4571 29.6144 22.903 33.6864C22.903 33.6864 22.903 33.8715 22.903 34.0566L15.3302 34.0566C15.3302 33.6864 15.3302 33.1311 15.5149 32.7609C16.069 25.9126 11.0821 19.8046 4.24814 19.2494C2.95523 19.0643 1.47761 19.2494 0.184702 19.4344C-1.32503e-09 17.0283 -6.85359e-10 14.437 0 11.8457Z" fill="#61C8C2"/>
<path d="M0 23.8766C4.43284 22.581 8.49628 24.617 10.3433 27.9486C11.4515 29.9846 11.4515 32.0206 10.8974 34.2417L3.69404 34.2417C3.69404 33.1311 3.13993 32.2057 2.21642 31.4653C1.47761 30.9101 0.738807 30.725 -1.78791e-09 30.725L0 23.8766Z" fill="#61C8C2"/>
<path d="M62.2446 39.2391L62.2446 65.892L54.4871 65.892L54.4871 52.1954C54.3024 52.3805 54.1177 52.5656 54.1177 52.5656C52.2707 54.9717 50.239 57.3779 48.392 59.7841C48.2073 60.1543 47.8379 60.1543 47.4685 60.3393C45.9909 60.5244 45.252 59.9692 44.3285 58.8586C42.8509 56.6375 41.1886 54.7866 39.5263 52.7507C39.3416 52.5656 39.3416 52.3805 39.1569 52.1954L39.1569 65.892L31.3994 65.892L31.3994 39.2391C31.5841 39.2391 31.7688 39.2391 31.9535 39.2391C33.9852 39.2391 36.017 39.2391 38.0487 39.2391C38.4181 39.2391 38.6028 39.4242 38.7875 39.6093C41.3733 43.126 43.9591 46.6427 46.3603 50.1594C46.545 50.3445 46.545 50.5296 46.7297 50.7147C46.9144 50.5296 47.0991 50.3445 47.0991 50.1594C49.6849 46.6427 52.2707 43.126 54.8565 39.6093C55.0412 39.4242 55.2259 39.2391 55.4106 39.2391C57.6271 39.054 59.8435 39.2391 62.2446 39.2391Z" fill="#61C8C2"/>
<path d="M137.418 39.2391L142.036 39.2391C145.36 39.2391 148.685 39.2391 152.01 39.2391C153.672 39.2391 155.149 39.4242 156.627 39.9794C160.691 41.4602 162.353 44.7918 161.983 48.6787C161.614 52.0103 159.952 54.4165 156.996 55.8972C156.996 55.8972 156.812 56.0823 156.627 56.0823C158.844 59.2288 161.06 62.5604 163.276 65.707C163.092 65.707 162.907 65.707 162.722 65.707C159.952 65.707 157.181 65.707 154.595 65.707C154.226 65.707 154.041 65.5219 153.857 65.3368C152.01 62.7455 150.347 60.1543 148.5 57.3779C148.316 57.0077 147.946 56.8226 147.577 56.8226C146.838 56.8226 145.914 56.8226 144.991 56.8226L144.991 65.5219L137.233 65.5219L137.418 39.2391ZM145.176 51.2699C147.207 51.2699 149.239 51.2699 151.271 51.2699C152.933 51.2699 153.857 49.9743 153.857 48.4936C153.857 46.8278 153.118 45.9023 151.271 45.7172C149.239 45.5321 147.207 45.7172 145.176 45.7172C145.176 45.7172 145.176 45.7172 144.991 45.7172L144.991 51.2699L145.176 51.2699Z" fill="#61C8C2"/>
<path d="M105.095 39.2391L128.183 39.2391L128.183 45.9023L113.037 45.9023L113.037 49.2339L126.705 49.2339L126.705 55.527L113.037 55.527L113.037 59.2288L113.776 59.2288C118.578 59.2288 123.381 59.2288 128.183 59.2288C128.737 59.2288 128.922 59.4139 128.922 59.7841C128.922 61.8201 128.922 63.671 128.922 65.707L105.095 65.707L105.095 39.2391Z" fill="#61C8C2"/>
<path d="M80.3453 65.707L72.0337 65.707L72.0337 39.2391C72.2184 39.2391 72.4031 39.2391 72.5878 39.2391C77.39 39.2391 82.1923 39.2391 86.9945 39.2391C90.8733 39.2391 94.0132 40.9049 95.6755 44.4216C98.0766 49.2339 95.8602 56.2674 88.8415 57.9332C87.918 58.1183 87.1792 58.1183 86.2557 58.1183C84.4087 58.1183 82.5617 58.1183 80.7147 58.1183C80.3453 58.1183 80.1606 58.3034 80.1606 58.6735C80.1606 60.7095 80.1606 62.9306 80.1606 64.9666C80.3453 65.3368 80.3453 65.5219 80.3453 65.707ZM80.1606 51.0848C80.3453 51.0848 80.3453 51.0848 80.3453 51.0848C81.8229 51.0848 83.3005 51.0848 84.9628 51.0848C85.7016 51.0848 86.4404 50.7147 86.9945 50.5296C87.918 49.9743 88.2874 49.2339 88.1027 48.1234C87.918 47.1979 87.3639 46.6427 86.4404 46.4576C85.7016 46.2725 84.7781 46.2725 84.0393 46.2725C82.7464 46.2725 81.4535 46.2725 80.1606 46.2725L80.1606 51.0848Z" fill="#61C8C2"/>
<path d="M230.139 65.8921C227.368 65.8921 224.782 65.8921 222.196 65.8921C222.012 65.8921 221.827 65.707 221.642 65.5219C221.273 64.5964 220.719 63.671 220.349 62.5604C220.165 62.1903 219.98 62.1903 219.611 62.1903C216.101 62.1903 212.592 62.1903 209.083 62.1903C208.713 62.1903 208.528 62.3754 208.344 62.7455C207.974 63.671 207.42 64.5964 207.051 65.707C207.051 65.8921 206.681 66.0772 206.497 66.0772C203.911 66.0772 201.325 66.0772 198.739 66.0772C198.924 65.8921 198.924 65.707 198.924 65.5219C202.803 57.0077 206.866 48.4936 210.745 39.9795C210.93 39.6093 211.114 39.4242 211.484 39.4242C213.515 39.4242 215.362 39.4242 217.394 39.4242C217.764 39.4242 217.948 39.4242 217.948 39.7944C222.012 48.4936 225.89 57.1928 229.954 65.8921C230.139 65.5219 230.139 65.707 230.139 65.8921ZM211.299 56.4525L217.764 56.4525C216.655 54.0463 215.547 51.6401 214.624 49.234C213.331 51.455 212.407 54.0463 211.299 56.4525Z" fill="#61C8C2"/>
<path d="M186.549 59.0437L192.644 59.0437L192.644 65.707L171.958 65.707L171.958 59.0437L178.053 59.0437L178.053 46.0874L171.958 46.0874L171.958 39.2391L192.644 39.2391L192.644 45.9023L186.549 45.9023L186.549 59.0437Z" fill="#61C8C2"/>
<path d="M235.864 65.707L235.864 39.2391L244.176 39.2391L244.176 58.8586L258.583 58.8586L258.583 65.892L235.864 65.707Z" fill="#61C8C2"/>
</g>
<defs>
<clipPath id="clip0_2299_395">
<rect width="258.582" height="68.4833" fill="white"/>
</clipPath>
</defs>
</svg>
