<svg width="543" height="145" viewBox="0 0 543 145" fill="none" xmlns="http://www.w3.org/2000/svg">
<path d="M0.117676 17.024V0.173983C20.5777 -1.09602 38.5977 4.55398 53.8077 18.204C71.2477 33.834 78.8277 53.624 77.9177 77.024H60.9677C62.0677 59.914 56.9177 44.904 44.6677 32.784C32.4477 20.734 17.4677 15.794 0.117676 17.024Z" fill="#ED2224"/>
<path d="M62.9277 84.564C65.6577 84.564 68.2477 84.404 70.7777 84.654C71.6277 84.744 72.5877 85.684 73.1677 86.484C79.7177 95.474 86.2077 104.534 92.7377 113.544C93.4277 114.484 94.1277 115.424 95.0377 116.634C97.7677 112.904 100.298 109.504 102.778 106.054C107.228 99.944 111.768 93.914 116.018 87.644C117.668 85.204 119.458 84.114 122.348 84.494C123.778 84.694 125.278 84.534 126.908 84.534V144.354H118.478V99.824C117.558 100.984 116.888 101.774 116.268 102.594C110.838 109.844 105.418 117.084 100.008 124.334C96.7677 128.674 93.0277 128.674 89.8777 124.374C84.3277 116.864 78.7677 109.344 73.2177 101.834C72.8177 101.294 72.3877 100.784 71.7677 100.024V144.394H62.9777V84.524L62.9377 84.544L62.9277 84.564Z" fill="#ED2224"/>
<path d="M299.158 144.474H290.368V84.534C294.008 84.534 297.568 84.514 301.098 84.534C308.748 84.624 316.458 84.174 324.018 84.984C332.518 85.874 338.888 92.584 340.078 100.344C341.308 108.394 337.288 115.934 329.588 120.004C328.988 120.314 328.358 120.634 327.288 121.194C332.498 128.914 337.618 136.494 343.078 144.604C339.278 144.604 335.948 144.714 332.658 144.514C331.918 144.474 331.138 143.394 330.598 142.614C326.578 136.714 322.528 130.804 318.638 124.814C317.498 123.044 316.268 122.224 314.078 122.284C309.228 122.444 304.378 122.334 299.138 122.334V144.474H299.158ZM310.738 113.614V113.814C314.698 113.614 318.698 113.704 322.588 113.094C326.818 112.464 330.218 108.394 330.728 104.264C331.198 100.394 328.828 96.454 324.598 94.674C322.898 93.954 320.978 93.444 319.138 93.374C313.278 93.214 307.418 93.374 301.558 93.284C299.788 93.264 299.048 93.794 299.078 95.654C299.148 100.824 299.168 105.964 299.078 111.134C299.038 113.174 299.928 113.704 301.758 113.634C304.728 113.544 307.708 113.614 310.698 113.614H310.718H310.738Z" fill="#ED2224"/>
<path d="M222.527 84.694H266.607V93.194H231.727V109.474H261.777V118.284H231.677V135.844H266.627V144.404H222.527V84.694Z" fill="#ED2224"/>
<path d="M480.538 144.364C480.048 144.494 479.958 144.544 479.848 144.564C471.088 145.074 470.638 145.234 467.688 137.094C465.678 131.504 462.768 129.584 456.868 130.114C449.868 130.744 442.758 130.314 435.718 130.224C433.968 130.204 433.038 130.734 432.368 132.394C431.008 135.794 429.348 139.104 427.988 142.504C427.338 144.134 426.418 144.804 424.658 144.694C422.488 144.534 420.298 144.654 417.748 144.654C418.108 143.604 418.308 142.794 418.638 142.034C426.758 123.714 434.918 105.424 442.968 87.084C443.838 85.114 444.958 84.784 446.928 84.494C452.518 83.664 455.138 85.834 457.308 91.114C464.288 108.064 471.978 124.754 479.378 141.544C479.758 142.434 480.118 143.334 480.538 144.404L480.558 144.364H480.538ZM460.388 121.284C456.518 112.314 452.788 103.664 448.888 94.644C444.998 103.704 441.258 112.374 437.438 121.284H460.378H460.388Z" fill="#ED2224"/>
<path d="M161.497 144.494H152.507V84.714C153.427 84.644 154.297 84.534 155.147 84.554C165.567 84.684 176.057 84.264 186.407 85.204C195.397 86.004 201.907 94.824 201.407 103.494C200.847 113.114 193.397 121.364 184.297 121.874C177.657 122.254 170.967 122.094 164.327 122.034C162.117 122.014 161.377 122.684 161.437 124.924C161.567 131.364 161.477 137.804 161.477 144.494H161.497ZM161.657 113.274C168.697 113.274 175.347 113.434 181.987 113.234C187.087 113.074 191.427 108.734 191.717 104.024C192.047 98.834 188.987 94.294 183.447 93.804C176.287 93.154 169.047 93.644 161.667 93.644V113.284L161.657 113.274Z" fill="#ED2224"/>
<path d="M51.0576 77.004H34.3076C37.2776 58.284 21.6676 40.304 0.247559 43.654V26.834C15.6076 25.294 28.7576 29.764 39.2676 41.014C48.7276 51.124 52.5276 63.224 51.0476 76.974V76.994L51.0576 77.004Z" fill="#ED2224"/>
<path d="M377.338 93.304H364.948V84.744H399.678V93.334C396.058 93.334 392.518 93.374 388.968 93.334C387.518 93.334 386.778 93.714 386.778 95.344C386.848 108.564 386.848 121.774 386.888 134.994C386.888 135.174 387.048 135.354 387.248 135.824H399.658V144.484H364.928V135.944H377.338V93.314V93.304Z" fill="#ED2224"/>
<path d="M3.24729 84.674H37.8673V93.334C34.4273 93.334 30.9773 93.374 27.5373 93.334C26.0373 93.314 25.0573 93.584 25.0773 95.394C25.1173 108.504 25.1173 121.624 25.1673 134.734C25.1673 135.004 25.3473 135.274 25.5473 135.784H37.8673V144.414H3.21729V135.914H15.8073C15.8973 134.614 16.0073 133.654 16.0073 132.674C16.0073 120.644 15.9373 108.634 16.0773 96.604C16.0973 93.984 15.3573 93.074 12.7273 93.254C9.66729 93.474 6.57729 93.294 3.26729 93.294V84.634L3.24729 84.674Z" fill="#ED2224"/>
<path d="M542.767 144.544H499.317V84.784H507.927V135.774H542.787V144.544H542.767Z" fill="#ED2224"/>
<path d="M8.2275 77.024C7.4475 72.444 4.8275 69.754 0.0175 69.244C0.0175 64.544 -0.0525 59.984 0.0875 55.444C0.0875 54.774 1.0475 53.724 1.7175 53.564C8.6475 51.934 14.7575 53.784 19.6275 58.864C24.4775 63.944 25.9975 70.044 24.1675 77.024H8.2275Z" fill="#ED2224"/>
</svg>
