<svg width="255" height="185" viewBox="0 0 255 185" fill="none" xmlns="http://www.w3.org/2000/svg">
<rect opacity="0.15" x="77.5" width="100" height="100" rx="24" fill="#FF0000" style="fill:#FF0000;fill:color(display-p3 1.0000 0.0000 0.0000);fill-opacity:1;"/>
<path d="M117.5 32.8337H137.5C146.358 32.8337 152.284 34.7322 156.026 38.4743C159.768 42.2163 161.666 48.1413 161.667 56.9997V76.9997C161.667 85.8584 159.768 91.784 156.026 95.526C152.284 99.2681 146.358 101.167 137.5 101.167H117.5C108.641 101.167 102.716 99.268 98.9741 95.526C95.2321 91.784 93.3335 85.8584 93.3335 76.9997V56.9997C93.3335 48.1412 95.2321 42.2163 98.9741 38.4743C102.716 34.7323 108.641 32.8337 117.5 32.8337ZM117.5 34.4997C109.699 34.4997 103.914 35.8702 100.142 39.6423C96.3701 43.4143 94.9995 49.1989 94.9995 56.9997V76.9997C94.9995 84.8006 96.37 90.586 100.142 94.3581C103.914 98.13 109.699 99.4996 117.5 99.4997H137.5C145.3 99.4997 151.086 98.1302 154.858 94.3581C158.63 90.586 160 84.8006 160 76.9997V56.9997C159.999 49.199 158.63 43.4143 154.858 39.6423C151.086 35.8702 145.3 34.4997 137.5 34.4997H117.5Z" fill="#FF0000" stroke="#FF0000" style="fill:#FF0000;fill:color(display-p3 1.0000 0.0000 0.0000);fill-opacity:1;stroke:#FF0000;stroke:color(display-p3 1.0000 0.0000 0.0000);stroke-opacity:1;" stroke-width="3.33333"/>
<path d="M122.379 53.9117C122.695 53.5962 123.239 53.5962 123.555 53.9117C123.869 54.2264 123.87 54.7683 123.558 55.0845C121.709 56.902 119.301 57.8335 116.9 57.8335C114.486 57.8335 112.083 56.9265 110.245 55.0884C109.929 54.7726 109.929 54.2275 110.245 53.9117C110.561 53.5959 111.106 53.5959 111.422 53.9117C114.439 56.9292 119.361 56.9292 122.379 53.9117Z" fill="#FF0000" stroke="#FF0000" style="fill:#FF0000;fill:color(display-p3 1.0000 0.0000 0.0000);fill-opacity:1;stroke:#FF0000;stroke:color(display-p3 1.0000 0.0000 0.0000);stroke-opacity:1;" stroke-width="3.33333"/>
<path d="M143.579 53.9117C143.894 53.5962 144.439 53.5962 144.754 53.9117C145.069 54.2264 145.07 54.7683 144.757 55.0845C142.908 56.902 140.5 57.8335 138.1 57.8335C135.686 57.8335 133.283 56.9265 131.445 55.0884C131.129 54.7726 131.129 54.2275 131.445 53.9117C131.761 53.5959 132.306 53.5959 132.622 53.9117C135.639 56.9292 140.561 56.9292 143.579 53.9117Z" fill="#FF0000" stroke="#FF0000" style="fill:#FF0000;fill:color(display-p3 1.0000 0.0000 0.0000);fill-opacity:1;stroke:#FF0000;stroke:color(display-p3 1.0000 0.0000 0.0000);stroke-opacity:1;" stroke-width="3.33333"/>
<path d="M115.5 69.5003H139.5C141.613 69.5003 143.333 71.2205 143.333 73.3333C143.333 82.0483 136.244 89.1664 127.5 89.1664C118.756 89.1664 111.667 82.0483 111.667 73.3333C111.667 71.2205 113.387 69.5003 115.5 69.5003ZM115.5 71.1664C114.313 71.1664 113.333 72.1462 113.333 73.3333C113.333 81.1538 119.68 87.5003 127.5 87.5003C135.32 87.5003 141.667 81.1538 141.667 73.3333C141.667 72.1462 140.687 71.1664 139.5 71.1664H115.5Z" fill="#FF0000" stroke="#FF0000" style="fill:#FF0000;fill:color(display-p3 1.0000 0.0000 0.0000);fill-opacity:1;stroke:#FF0000;stroke:color(display-p3 1.0000 0.0000 0.0000);stroke-opacity:1;" stroke-width="3.33333"/>
<path d="M23.1027 133V119.909H31.6169V121.897H25.4742V125.451H31.1759V127.439H25.4742V131.012H31.6681V133H23.1027ZM36.248 127.247V133H33.934V123.182H36.1457V124.85H36.2607C36.4866 124.3 36.8467 123.864 37.341 123.54C37.8396 123.216 38.4553 123.054 39.1883 123.054C39.8659 123.054 40.4561 123.199 40.9589 123.489C41.466 123.778 41.858 124.198 42.135 124.748C42.4163 125.298 42.5548 125.964 42.5505 126.749V133H40.2366V127.107C40.2366 126.45 40.0661 125.937 39.7252 125.566C39.3886 125.195 38.922 125.01 38.3254 125.01C37.9205 125.01 37.5605 125.099 37.2451 125.278C36.934 125.453 36.689 125.707 36.51 126.039C36.3353 126.371 36.248 126.774 36.248 127.247ZM47.7281 133.198C47.1059 133.198 46.5455 133.087 46.047 132.866C45.5526 132.64 45.1606 132.308 44.8708 131.869C44.5853 131.43 44.4426 130.888 44.4426 130.245C44.4426 129.691 44.5448 129.233 44.7494 128.871C44.9539 128.509 45.233 128.219 45.5867 128.001C45.9404 127.784 46.3389 127.62 46.782 127.509C47.2295 127.394 47.6919 127.311 48.1691 127.26C48.7444 127.2 49.211 127.147 49.569 127.1C49.9269 127.049 50.1869 126.972 50.3488 126.87C50.515 126.763 50.5981 126.599 50.5981 126.378V126.339C50.5981 125.858 50.4553 125.485 50.1698 125.221C49.8843 124.957 49.4731 124.825 48.9362 124.825C48.3694 124.825 47.9198 124.948 47.5874 125.195C47.2593 125.442 47.0377 125.734 46.9227 126.071L44.7622 125.764C44.9326 125.168 45.2139 124.669 45.6059 124.268C45.998 123.864 46.4774 123.561 47.0441 123.361C47.6109 123.156 48.2373 123.054 48.9234 123.054C49.3964 123.054 49.8673 123.109 50.336 123.22C50.8048 123.331 51.233 123.514 51.6208 123.77C52.0086 124.021 52.3197 124.364 52.5541 124.799C52.7927 125.234 52.912 125.777 52.912 126.429V133H50.6876V131.651H50.6109C50.4703 131.924 50.2721 132.18 50.0164 132.418C49.765 132.653 49.4475 132.842 49.064 132.987C48.6847 133.128 48.2394 133.198 47.7281 133.198ZM48.3289 131.498C48.7934 131.498 49.1961 131.406 49.537 131.223C49.8779 131.036 50.14 130.788 50.3232 130.482C50.5107 130.175 50.6045 129.84 50.6045 129.478V128.321C50.532 128.381 50.4085 128.436 50.2338 128.487C50.0633 128.538 49.8715 128.583 49.6585 128.621C49.4454 128.66 49.2345 128.694 49.0257 128.724C48.8169 128.754 48.6357 128.779 48.4823 128.8C48.1372 128.847 47.8282 128.924 47.5555 129.031C47.2828 129.137 47.0676 129.286 46.9099 129.478C46.7522 129.665 46.6734 129.908 46.6734 130.207C46.6734 130.633 46.8289 130.955 47.14 131.172C47.4511 131.389 47.8474 131.498 48.3289 131.498ZM55.341 133V119.909H57.6549V124.805H57.7508C57.8701 124.567 58.0384 124.313 58.2558 124.045C58.4731 123.772 58.7671 123.54 59.1379 123.348C59.5086 123.152 59.9816 123.054 60.5569 123.054C61.3154 123.054 61.9994 123.248 62.6088 123.636C63.2224 124.019 63.7082 124.588 64.0661 125.342C64.4284 126.092 64.6095 127.013 64.6095 128.104C64.6095 129.182 64.4326 130.098 64.0789 130.852C63.7252 131.607 63.2437 132.182 62.6343 132.578C62.0249 132.974 61.3346 133.173 60.5633 133.173C60.0008 133.173 59.5342 133.079 59.1634 132.891C58.7927 132.704 58.4944 132.478 58.2686 132.214C58.047 131.945 57.8744 131.692 57.7508 131.453H57.6166V133H55.341ZM57.6102 128.091C57.6102 128.726 57.6997 129.282 57.8786 129.759C58.0619 130.237 58.324 130.609 58.6649 130.878C59.01 131.142 59.4276 131.274 59.9177 131.274C60.4291 131.274 60.8573 131.138 61.2025 130.865C61.5477 130.588 61.8076 130.211 61.9823 129.734C62.1613 129.252 62.2508 128.705 62.2508 128.091C62.2508 127.482 62.1634 126.94 61.9887 126.467C61.814 125.994 61.5541 125.624 61.2089 125.355C60.8637 125.087 60.4333 124.952 59.9177 124.952C59.4234 124.952 59.0036 125.082 58.6585 125.342C58.3133 125.602 58.0512 125.967 57.8722 126.435C57.6975 126.904 57.6102 127.456 57.6102 128.091ZM68.8905 119.909V133H66.5766V119.909H68.8905ZM75.6166 133.192C74.6322 133.192 73.782 132.987 73.0661 132.578C72.3545 132.165 71.8069 131.581 71.4234 130.827C71.0399 130.068 70.8481 129.175 70.8481 128.148C70.8481 127.138 71.0399 126.252 71.4234 125.489C71.8112 124.722 72.3524 124.126 73.047 123.7C73.7416 123.269 74.5576 123.054 75.4951 123.054C76.1002 123.054 76.6713 123.152 77.2082 123.348C77.7494 123.54 78.2267 123.838 78.64 124.243C79.0576 124.648 79.3857 125.163 79.6244 125.79C79.863 126.412 79.9823 127.153 79.9823 128.014V128.724H71.9347V127.164H77.7643C77.76 126.721 77.6642 126.327 77.4767 125.982C77.2892 125.632 77.0271 125.357 76.6904 125.157C76.358 124.957 75.9703 124.857 75.5271 124.857C75.0541 124.857 74.6386 124.972 74.2806 125.202C73.9227 125.428 73.6436 125.726 73.4433 126.097C73.2472 126.463 73.1471 126.866 73.1428 127.305V128.666C73.1428 129.237 73.2472 129.727 73.4561 130.136C73.6649 130.541 73.9568 130.852 74.3318 131.07C74.7068 131.283 75.1457 131.389 75.6485 131.389C75.9852 131.389 76.2899 131.342 76.5626 131.249C76.8353 131.151 77.0718 131.008 77.2721 130.82C77.4724 130.633 77.6237 130.401 77.7259 130.124L79.8865 130.366C79.7501 130.937 79.4901 131.436 79.1066 131.862C78.7274 132.284 78.2416 132.612 77.6492 132.847C77.0569 133.077 76.3794 133.192 75.6166 133.192ZM86.507 133V119.909H94.8934V121.897H88.8785V125.451H94.3181V127.439H88.8785V133H86.507ZM99.689 133.198C99.0669 133.198 98.5065 133.087 98.0079 132.866C97.5136 132.64 97.1215 132.308 96.8318 131.869C96.5463 131.43 96.4035 130.888 96.4035 130.245C96.4035 129.691 96.5058 129.233 96.7103 128.871C96.9149 128.509 97.194 128.219 97.5477 128.001C97.9014 127.784 98.2998 127.62 98.743 127.509C99.1904 127.394 99.6528 127.311 100.13 127.26C100.705 127.2 101.172 127.147 101.53 127.1C101.888 127.049 102.148 126.972 102.31 126.87C102.476 126.763 102.559 126.599 102.559 126.378V126.339C102.559 125.858 102.416 125.485 102.131 125.221C101.845 124.957 101.434 124.825 100.897 124.825C100.33 124.825 99.8808 124.948 99.5484 125.195C99.2203 125.442 98.9987 125.734 98.8836 126.071L96.7231 125.764C96.8936 125.168 97.1748 124.669 97.5669 124.268C97.9589 123.864 98.4383 123.561 99.0051 123.361C99.5718 123.156 100.198 123.054 100.884 123.054C101.357 123.054 101.828 123.109 102.297 123.22C102.766 123.331 103.194 123.514 103.582 123.77C103.97 124.021 104.281 124.364 104.515 124.799C104.754 125.234 104.873 125.777 104.873 126.429V133H102.649V131.651H102.572C102.431 131.924 102.233 132.18 101.977 132.418C101.726 132.653 101.408 132.842 101.025 132.987C100.646 133.128 100.2 133.198 99.689 133.198ZM100.29 131.498C100.754 131.498 101.157 131.406 101.498 131.223C101.839 131.036 102.101 130.788 102.284 130.482C102.472 130.175 102.565 129.84 102.565 129.478V128.321C102.493 128.381 102.369 128.436 102.195 128.487C102.024 128.538 101.832 128.583 101.619 128.621C101.406 128.66 101.195 128.694 100.987 128.724C100.778 128.754 100.597 128.779 100.443 128.8C100.098 128.847 99.7892 128.924 99.5164 129.031C99.2437 129.137 99.0285 129.286 98.8708 129.478C98.7132 129.665 98.6343 129.908 98.6343 130.207C98.6343 130.633 98.7899 130.955 99.1009 131.172C99.412 131.389 99.8083 131.498 100.29 131.498ZM111.482 133.192C110.502 133.192 109.661 132.977 108.957 132.546C108.259 132.116 107.72 131.521 107.34 130.763C106.965 130 106.778 129.122 106.778 128.129C106.778 127.132 106.97 126.252 107.353 125.489C107.737 124.722 108.278 124.126 108.977 123.7C109.68 123.269 110.511 123.054 111.47 123.054C112.266 123.054 112.972 123.201 113.585 123.495C114.203 123.785 114.695 124.196 115.062 124.729C115.428 125.257 115.637 125.875 115.688 126.582H113.477C113.387 126.109 113.174 125.715 112.837 125.4C112.505 125.08 112.06 124.92 111.502 124.92C111.028 124.92 110.613 125.048 110.255 125.304C109.897 125.555 109.618 125.918 109.418 126.391C109.222 126.864 109.124 127.43 109.124 128.091C109.124 128.76 109.222 129.335 109.418 129.817C109.614 130.294 109.889 130.663 110.242 130.923C110.6 131.178 111.02 131.306 111.502 131.306C111.842 131.306 112.147 131.242 112.416 131.114C112.688 130.982 112.916 130.793 113.1 130.545C113.283 130.298 113.408 129.998 113.477 129.644H115.688C115.633 130.339 115.428 130.955 115.075 131.491C114.721 132.024 114.239 132.442 113.63 132.744C113.021 133.043 112.305 133.192 111.482 133.192ZM121.935 133.192C120.951 133.192 120.1 132.987 119.384 132.578C118.673 132.165 118.125 131.581 117.742 130.827C117.358 130.068 117.166 129.175 117.166 128.148C117.166 127.138 117.358 126.252 117.742 125.489C118.13 124.722 118.671 124.126 119.365 123.7C120.06 123.269 120.876 123.054 121.813 123.054C122.419 123.054 122.99 123.152 123.527 123.348C124.068 123.54 124.545 123.838 124.958 124.243C125.376 124.648 125.704 125.163 125.943 125.79C126.181 126.412 126.301 127.153 126.301 128.014V128.724H118.253V127.164H124.083C124.078 126.721 123.983 126.327 123.795 125.982C123.608 125.632 123.345 125.357 123.009 125.157C122.676 124.957 122.289 124.857 121.845 124.857C121.372 124.857 120.957 124.972 120.599 125.202C120.241 125.428 119.962 125.726 119.762 126.097C119.566 126.463 119.465 126.866 119.461 127.305V128.666C119.461 129.237 119.566 129.727 119.774 130.136C119.983 130.541 120.275 130.852 120.65 131.07C121.025 131.283 121.464 131.389 121.967 131.389C122.304 131.389 122.608 131.342 122.881 131.249C123.154 131.151 123.39 131.008 123.59 130.82C123.791 130.633 123.942 130.401 124.044 130.124L126.205 130.366C126.068 130.937 125.809 131.436 125.425 131.862C125.046 132.284 124.56 132.612 123.968 132.847C123.375 133.077 122.698 133.192 121.935 133.192ZM135.197 119.909V133H132.825V119.909H135.197ZM142.201 133H137.765V119.909H142.29C143.59 119.909 144.707 120.171 145.64 120.695C146.577 121.215 147.297 121.963 147.8 122.939C148.303 123.915 148.555 125.082 148.555 126.442C148.555 127.805 148.301 128.977 147.794 129.957C147.291 130.937 146.565 131.69 145.614 132.214C144.668 132.738 143.53 133 142.201 133ZM140.136 130.948H142.086C142.998 130.948 143.758 130.782 144.368 130.45C144.977 130.113 145.435 129.612 145.742 128.947C146.049 128.278 146.202 127.443 146.202 126.442C146.202 125.44 146.049 124.609 145.742 123.949C145.435 123.284 144.981 122.788 144.381 122.46C143.784 122.127 143.043 121.961 142.156 121.961H140.136V130.948ZM160.143 123.182V124.972H154.339V123.182H160.143ZM155.79 133V122.255C155.79 121.594 155.927 121.045 156.199 120.606C156.476 120.167 156.847 119.839 157.312 119.621C157.776 119.404 158.292 119.295 158.859 119.295C159.259 119.295 159.615 119.327 159.926 119.391C160.237 119.455 160.467 119.513 160.616 119.564L160.156 121.354C160.058 121.324 159.935 121.294 159.785 121.264C159.636 121.23 159.47 121.213 159.287 121.213C158.856 121.213 158.552 121.317 158.373 121.526C158.198 121.731 158.111 122.025 158.111 122.408V133H155.79ZM165.869 133.192C164.91 133.192 164.079 132.981 163.376 132.559C162.673 132.137 162.128 131.547 161.74 130.788C161.356 130.03 161.165 129.143 161.165 128.129C161.165 127.115 161.356 126.227 161.74 125.464C162.128 124.701 162.673 124.109 163.376 123.687C164.079 123.265 164.91 123.054 165.869 123.054C166.828 123.054 167.659 123.265 168.362 123.687C169.065 124.109 169.608 124.701 169.992 125.464C170.38 126.227 170.574 127.115 170.574 128.129C170.574 129.143 170.38 130.03 169.992 130.788C169.608 131.547 169.065 132.137 168.362 132.559C167.659 132.981 166.828 133.192 165.869 133.192ZM165.882 131.338C166.402 131.338 166.836 131.195 167.186 130.91C167.535 130.62 167.795 130.232 167.966 129.746C168.14 129.261 168.228 128.719 168.228 128.123C168.228 127.522 168.14 126.979 167.966 126.493C167.795 126.003 167.535 125.613 167.186 125.323C166.836 125.033 166.402 124.888 165.882 124.888C165.349 124.888 164.906 125.033 164.552 125.323C164.203 125.613 163.941 126.003 163.766 126.493C163.596 126.979 163.51 127.522 163.51 128.123C163.51 128.719 163.596 129.261 163.766 129.746C163.941 130.232 164.203 130.62 164.552 130.91C164.906 131.195 165.349 131.338 165.882 131.338ZM172.538 133V123.182H174.781V124.818H174.883C175.062 124.251 175.369 123.815 175.804 123.508C176.243 123.197 176.744 123.041 177.306 123.041C177.434 123.041 177.577 123.048 177.734 123.06C177.896 123.069 178.03 123.084 178.137 123.105V125.234C178.039 125.2 177.883 125.17 177.67 125.144C177.462 125.114 177.259 125.099 177.063 125.099C176.641 125.099 176.262 125.191 175.925 125.374C175.593 125.553 175.331 125.803 175.139 126.122C174.947 126.442 174.851 126.81 174.851 127.228V133H172.538ZM189.119 128.602H191.266L192.538 130.251L193.446 131.325L195.626 134.125H193.324L191.842 132.246L191.209 131.351L189.119 128.602ZM195.939 126.455C195.939 127.865 195.675 129.073 195.146 130.079C194.622 131.08 193.906 131.847 192.998 132.38C192.095 132.913 191.07 133.179 189.924 133.179C188.778 133.179 187.751 132.913 186.843 132.38C185.94 131.843 185.224 131.074 184.695 130.072C184.171 129.067 183.909 127.861 183.909 126.455C183.909 125.044 184.171 123.838 184.695 122.837C185.224 121.831 185.94 121.062 186.843 120.529C187.751 119.996 188.778 119.73 189.924 119.73C191.07 119.73 192.095 119.996 192.998 120.529C193.906 121.062 194.622 121.831 195.146 122.837C195.675 123.838 195.939 125.044 195.939 126.455ZM193.555 126.455C193.555 125.462 193.399 124.624 193.088 123.942C192.781 123.256 192.355 122.739 191.81 122.389C191.264 122.036 190.636 121.859 189.924 121.859C189.212 121.859 188.584 122.036 188.038 122.389C187.493 122.739 187.065 123.256 186.753 123.942C186.447 124.624 186.293 125.462 186.293 126.455C186.293 127.447 186.447 128.287 186.753 128.973C187.065 129.655 187.493 130.173 188.038 130.526C188.584 130.876 189.212 131.05 189.924 131.05C190.636 131.05 191.264 130.876 191.81 130.526C192.355 130.173 192.781 129.655 193.088 128.973C193.399 128.287 193.555 127.447 193.555 126.455ZM204.354 128.871V123.182H206.668V133H204.424V131.255H204.322C204.1 131.805 203.736 132.254 203.229 132.604C202.726 132.953 202.106 133.128 201.369 133.128C200.725 133.128 200.157 132.985 199.662 132.7C199.172 132.41 198.789 131.99 198.512 131.44C198.235 130.886 198.096 130.217 198.096 129.433V123.182H200.41V129.075C200.41 129.697 200.581 130.192 200.921 130.558C201.262 130.925 201.71 131.108 202.264 131.108C202.605 131.108 202.935 131.025 203.255 130.859C203.574 130.692 203.836 130.445 204.041 130.117C204.25 129.785 204.354 129.369 204.354 128.871ZM209.047 133V123.182H211.361V133H209.047ZM210.211 121.788C209.844 121.788 209.529 121.667 209.265 121.424C209 121.177 208.868 120.881 208.868 120.536C208.868 120.186 209 119.89 209.265 119.647C209.529 119.4 209.844 119.276 210.211 119.276C210.581 119.276 210.897 119.4 211.157 119.647C211.421 119.89 211.553 120.186 211.553 120.536C211.553 120.881 211.421 121.177 211.157 121.424C210.897 121.667 210.581 121.788 210.211 121.788ZM218.023 133.192C217.043 133.192 216.202 132.977 215.498 132.546C214.8 132.116 214.261 131.521 213.881 130.763C213.506 130 213.319 129.122 213.319 128.129C213.319 127.132 213.511 126.252 213.894 125.489C214.278 124.722 214.819 124.126 215.518 123.7C216.221 123.269 217.052 123.054 218.011 123.054C218.807 123.054 219.513 123.201 220.126 123.495C220.744 123.785 221.236 124.196 221.603 124.729C221.969 125.257 222.178 125.875 222.229 126.582H220.018C219.928 126.109 219.715 125.715 219.378 125.4C219.046 125.08 218.601 124.92 218.043 124.92C217.57 124.92 217.154 125.048 216.796 125.304C216.438 125.555 216.159 125.918 215.959 126.391C215.763 126.864 215.665 127.43 215.665 128.091C215.665 128.76 215.763 129.335 215.959 129.817C216.155 130.294 216.43 130.663 216.783 130.923C217.141 131.178 217.561 131.306 218.043 131.306C218.383 131.306 218.688 131.242 218.957 131.114C219.229 130.982 219.457 130.793 219.641 130.545C219.824 130.298 219.949 129.998 220.018 129.644H222.229C222.174 130.339 221.969 130.955 221.616 131.491C221.262 132.024 220.78 132.442 220.171 132.744C219.562 133.043 218.846 133.192 218.023 133.192ZM226.239 129.919L226.232 127.126H226.603L230.131 123.182H232.835L228.495 128.014H228.016L226.239 129.919ZM224.129 133V119.909H226.443V133H224.129ZM230.291 133L227.095 128.532L228.655 126.902L233.059 133H230.291Z" fill="#0C1523" style="fill:#0C1523;fill:color(display-p3 0.0471 0.0824 0.1373);fill-opacity:1;"/>
<path d="M24.1773 157V146.818H27.6176C28.4164 146.818 29.0693 146.962 29.5764 147.251C30.0869 147.536 30.4647 147.922 30.71 148.409C30.9552 148.896 31.0779 149.44 31.0779 150.04C31.0779 150.64 30.9552 151.185 30.71 151.675C30.468 152.166 30.0935 152.557 29.5864 152.849C29.0793 153.137 28.4297 153.281 27.6375 153.281H25.1716V152.188H27.5977C28.1446 152.188 28.5838 152.093 28.9152 151.904C29.2467 151.715 29.4869 151.46 29.6361 151.138C29.7886 150.814 29.8648 150.447 29.8648 150.04C29.8648 149.632 29.7886 149.268 29.6361 148.946C29.4869 148.625 29.245 148.373 28.9102 148.19C28.5755 148.005 28.1314 147.912 27.5779 147.912H25.4102V157H24.1773ZM32.9049 157V149.364H34.0384V150.517H34.118C34.2572 150.139 34.5091 149.833 34.8737 149.597C35.2383 149.362 35.6492 149.244 36.1066 149.244C36.1928 149.244 36.3005 149.246 36.4298 149.249C36.559 149.253 36.6568 149.258 36.7231 149.264V150.457C36.6833 150.447 36.5922 150.433 36.4497 150.413C36.3105 150.389 36.163 150.378 36.0072 150.378C35.636 150.378 35.3045 150.456 35.0129 150.612C34.7245 150.764 34.4958 150.976 34.3268 151.248C34.1611 151.516 34.0782 151.823 34.0782 152.168V157H32.9049ZM40.9838 157.159C40.2944 157.159 39.6895 156.995 39.1691 156.667C38.6521 156.339 38.2477 155.88 37.9561 155.29C37.6677 154.7 37.5235 154.01 37.5235 153.222C37.5235 152.426 37.6677 151.732 37.9561 151.138C38.2477 150.545 38.6521 150.085 39.1691 149.756C39.6895 149.428 40.2944 149.264 40.9838 149.264C41.6731 149.264 42.2764 149.428 42.7934 149.756C43.3138 150.085 43.7181 150.545 44.0065 151.138C44.2981 151.732 44.444 152.426 44.444 153.222C44.444 154.01 44.2981 154.7 44.0065 155.29C43.7181 155.88 43.3138 156.339 42.7934 156.667C42.2764 156.995 41.6731 157.159 40.9838 157.159ZM40.9838 156.105C41.5074 156.105 41.9383 155.971 42.2764 155.702C42.6144 155.434 42.8647 155.081 43.0271 154.643C43.1895 154.206 43.2707 153.732 43.2707 153.222C43.2707 152.711 43.1895 152.236 43.0271 151.795C42.8647 151.354 42.6144 150.998 42.2764 150.726C41.9383 150.454 41.5074 150.318 40.9838 150.318C40.4601 150.318 40.0292 150.454 39.6911 150.726C39.3531 150.998 39.1028 151.354 38.9404 151.795C38.778 152.236 38.6968 152.711 38.6968 153.222C38.6968 153.732 38.778 154.206 38.9404 154.643C39.1028 155.081 39.3531 155.434 39.6911 155.702C40.0292 155.971 40.4601 156.105 40.9838 156.105ZM49.556 149.364V150.358H45.5986V149.364H49.556ZM46.752 147.534H47.9253V154.812C47.9253 155.144 47.9734 155.393 48.0695 155.558C48.1689 155.721 48.2949 155.83 48.4474 155.886C48.6031 155.939 48.7672 155.966 48.9395 155.966C49.0688 155.966 49.1749 155.959 49.2577 155.946C49.3406 155.929 49.4069 155.916 49.4566 155.906L49.6952 156.96C49.6157 156.99 49.5046 157.02 49.3621 157.05C49.2196 157.083 49.039 157.099 48.8202 157.099C48.4888 157.099 48.164 157.028 47.8458 156.886C47.5309 156.743 47.2691 156.526 47.0603 156.234C46.8548 155.943 46.752 155.575 46.752 155.131V147.534ZM54.4406 157.159C53.7048 157.159 53.0701 156.997 52.5365 156.672C52.0062 156.344 51.5969 155.886 51.3085 155.3C51.0235 154.71 50.8809 154.024 50.8809 153.241C50.8809 152.459 51.0235 151.77 51.3085 151.173C51.5969 150.573 51.9979 150.106 52.5116 149.771C53.0287 149.433 53.6319 149.264 54.3213 149.264C54.719 149.264 55.1118 149.33 55.4996 149.463C55.8873 149.596 56.2403 149.811 56.5585 150.109C56.8767 150.404 57.1302 150.795 57.3192 151.283C57.5081 151.77 57.6025 152.37 57.6025 153.082V153.58H51.7162V152.565H56.4094C56.4094 152.134 56.3232 151.75 56.1508 151.412C55.9818 151.074 55.7398 150.807 55.425 150.612C55.1134 150.416 54.7455 150.318 54.3213 150.318C53.854 150.318 53.4496 150.434 53.1082 150.666C52.7702 150.895 52.51 151.193 52.3277 151.561C52.1454 151.929 52.0542 152.323 52.0542 152.744V153.42C52.0542 153.997 52.1537 154.486 52.3525 154.887C52.5547 155.285 52.8348 155.588 53.1927 155.797C53.5507 156.002 53.9666 156.105 54.4406 156.105C54.7488 156.105 55.0273 156.062 55.2758 155.976C55.5277 155.886 55.7448 155.754 55.9271 155.578C56.1094 155.399 56.2503 155.177 56.3497 154.912L57.4832 155.23C57.3639 155.615 57.1634 155.953 56.8817 156.244C56.5999 156.533 56.2519 156.758 55.8376 156.92C55.4233 157.08 54.9577 157.159 54.4406 157.159ZM62.4896 157.159C61.7737 157.159 61.1572 156.99 60.6402 156.652C60.1231 156.314 59.7254 155.848 59.447 155.255C59.1686 154.662 59.0294 153.984 59.0294 153.222C59.0294 152.446 59.1719 151.762 59.4569 151.168C59.7453 150.572 60.1463 150.106 60.6601 149.771C61.1771 149.433 61.7803 149.264 62.4697 149.264C63.0067 149.264 63.4906 149.364 63.9214 149.562C64.3523 149.761 64.7053 150.04 64.9804 150.398C65.2555 150.756 65.4262 151.173 65.4925 151.651H64.3192C64.2297 151.303 64.0308 150.994 63.7226 150.726C63.4176 150.454 63.0067 150.318 62.4896 150.318C62.0322 150.318 61.6312 150.437 61.2865 150.676C60.9451 150.911 60.6783 151.245 60.4861 151.675C60.2971 152.103 60.2027 152.605 60.2027 153.182C60.2027 153.772 60.2955 154.286 60.4811 154.723C60.67 155.161 60.9352 155.5 61.2765 155.742C61.6212 155.984 62.0256 156.105 62.4896 156.105C62.7945 156.105 63.0713 156.052 63.3199 155.946C63.5684 155.84 63.7789 155.688 63.9513 155.489C64.1236 155.29 64.2462 155.051 64.3192 154.773H65.4925C65.4262 155.223 65.2621 155.629 65.0003 155.991C64.7417 156.349 64.3987 156.634 63.9711 156.846C63.5469 157.055 63.0531 157.159 62.4896 157.159ZM70.5287 149.364V150.358H66.5713V149.364H70.5287ZM67.7247 147.534H68.898V154.812C68.898 155.144 68.9461 155.393 69.0422 155.558C69.1416 155.721 69.2675 155.83 69.42 155.886C69.5758 155.939 69.7398 155.966 69.9122 155.966C70.0415 155.966 70.1475 155.959 70.2304 155.946C70.3132 155.929 70.3795 155.916 70.4292 155.906L70.6679 156.96C70.5883 156.99 70.4773 157.02 70.3348 157.05C70.1923 157.083 70.0116 157.099 69.7929 157.099C69.4614 157.099 69.1366 157.028 68.8184 156.886C68.5036 156.743 68.2417 156.526 68.0329 156.234C67.8274 155.943 67.7247 155.575 67.7247 155.131V147.534ZM75.5152 146.818H76.9271L79.751 151.571H79.8703L82.6942 146.818H84.1061L80.4271 152.804V157H79.1942V152.804L75.5152 146.818ZM87.5638 157.159C86.8744 157.159 86.2696 156.995 85.7492 156.667C85.2322 156.339 84.8278 155.88 84.5361 155.29C84.2478 154.7 84.1036 154.01 84.1036 153.222C84.1036 152.426 84.2478 151.732 84.5361 151.138C84.8278 150.545 85.2322 150.085 85.7492 149.756C86.2696 149.428 86.8744 149.264 87.5638 149.264C88.2532 149.264 88.8564 149.428 89.3735 149.756C89.8939 150.085 90.2982 150.545 90.5866 151.138C90.8782 151.732 91.0241 152.426 91.0241 153.222C91.0241 154.01 90.8782 154.7 90.5866 155.29C90.2982 155.88 89.8939 156.339 89.3735 156.667C88.8564 156.995 88.2532 157.159 87.5638 157.159ZM87.5638 156.105C88.0875 156.105 88.5184 155.971 88.8564 155.702C89.1945 155.434 89.4448 155.081 89.6072 154.643C89.7696 154.206 89.8508 153.732 89.8508 153.222C89.8508 152.711 89.7696 152.236 89.6072 151.795C89.4448 151.354 89.1945 150.998 88.8564 150.726C88.5184 150.454 88.0875 150.318 87.5638 150.318C87.0402 150.318 86.6093 150.454 86.2712 150.726C85.9332 150.998 85.6829 151.354 85.5205 151.795C85.3581 152.236 85.2769 152.711 85.2769 153.222C85.2769 153.732 85.3581 154.206 85.5205 154.643C85.6829 155.081 85.9332 155.434 86.2712 155.702C86.6093 155.971 87.0402 156.105 87.5638 156.105ZM97.6276 153.878V149.364H98.8009V157H97.6276V155.707H97.548C97.3691 156.095 97.0906 156.425 96.7128 156.697C96.335 156.965 95.8577 157.099 95.281 157.099C94.8037 157.099 94.3795 156.995 94.0083 156.786C93.637 156.574 93.3454 156.256 93.1333 155.832C92.9211 155.404 92.8151 154.866 92.8151 154.216V149.364H93.9884V154.136C93.9884 154.693 94.1441 155.137 94.4557 155.469C94.7706 155.8 95.1716 155.966 95.6588 155.966C95.9505 155.966 96.2471 155.891 96.5487 155.742C96.8537 155.593 97.1089 155.364 97.3144 155.056C97.5232 154.748 97.6276 154.355 97.6276 153.878ZM100.95 157V149.364H102.083V150.517H102.163C102.302 150.139 102.554 149.833 102.919 149.597C103.283 149.362 103.694 149.244 104.152 149.244C104.238 149.244 104.345 149.246 104.475 149.249C104.604 149.253 104.702 149.258 104.768 149.264V150.457C104.728 150.447 104.637 150.433 104.495 150.413C104.355 150.389 104.208 150.378 104.052 150.378C103.681 150.378 103.349 150.456 103.058 150.612C102.769 150.764 102.541 150.976 102.372 151.248C102.206 151.516 102.123 151.823 102.123 152.168V157H100.95ZM110.673 157H109.38L113.119 146.818H114.392L118.13 157H116.838L113.795 148.429H113.716L110.673 157ZM111.15 153.023H116.361V154.116H111.15V153.023ZM122.66 157.159C121.944 157.159 121.327 156.99 120.81 156.652C120.293 156.314 119.895 155.848 119.617 155.255C119.339 154.662 119.199 153.984 119.199 153.222C119.199 152.446 119.342 151.762 119.627 151.168C119.915 150.572 120.316 150.106 120.83 149.771C121.347 149.433 121.95 149.264 122.64 149.264C123.177 149.264 123.66 149.364 124.091 149.562C124.522 149.761 124.875 150.04 125.15 150.398C125.425 150.756 125.596 151.173 125.662 151.651H124.489C124.4 151.303 124.201 150.994 123.892 150.726C123.588 150.454 123.177 150.318 122.66 150.318C122.202 150.318 121.801 150.437 121.456 150.676C121.115 150.911 120.848 151.245 120.656 151.675C120.467 152.103 120.373 152.605 120.373 153.182C120.373 153.772 120.465 154.286 120.651 154.723C120.84 155.161 121.105 155.5 121.446 155.742C121.791 155.984 122.196 156.105 122.66 156.105C122.964 156.105 123.241 156.052 123.49 155.946C123.738 155.84 123.949 155.688 124.121 155.489C124.294 155.29 124.416 155.051 124.489 154.773H125.662C125.596 155.223 125.432 155.629 125.17 155.991C124.912 156.349 124.569 156.634 124.141 156.846C123.717 157.055 123.223 157.159 122.66 157.159ZM130.48 157.159C129.764 157.159 129.147 156.99 128.63 156.652C128.113 156.314 127.716 155.848 127.437 155.255C127.159 154.662 127.02 153.984 127.02 153.222C127.02 152.446 127.162 151.762 127.447 151.168C127.736 150.572 128.137 150.106 128.65 149.771C129.167 149.433 129.771 149.264 130.46 149.264C130.997 149.264 131.481 149.364 131.912 149.562C132.343 149.761 132.696 150.04 132.971 150.398C133.246 150.756 133.416 151.173 133.483 151.651H132.309C132.22 151.303 132.021 150.994 131.713 150.726C131.408 150.454 130.997 150.318 130.48 150.318C130.022 150.318 129.621 150.437 129.277 150.676C128.935 150.911 128.669 151.245 128.476 151.675C128.287 152.103 128.193 152.605 128.193 153.182C128.193 153.772 128.286 154.286 128.471 154.723C128.66 155.161 128.925 155.5 129.267 155.742C129.611 155.984 130.016 156.105 130.48 156.105C130.785 156.105 131.062 156.052 131.31 155.946C131.559 155.84 131.769 155.688 131.941 155.489C132.114 155.29 132.236 155.051 132.309 154.773H133.483C133.416 155.223 133.252 155.629 132.991 155.991C132.732 156.349 132.389 156.634 131.961 156.846C131.537 157.055 131.043 157.159 130.48 157.159ZM138.3 157.159C137.611 157.159 137.006 156.995 136.486 156.667C135.968 156.339 135.564 155.88 135.272 155.29C134.984 154.7 134.84 154.01 134.84 153.222C134.84 152.426 134.984 151.732 135.272 151.138C135.564 150.545 135.968 150.085 136.486 149.756C137.006 149.428 137.611 149.264 138.3 149.264C138.99 149.264 139.593 149.428 140.11 149.756C140.63 150.085 141.035 150.545 141.323 151.138C141.615 151.732 141.76 152.426 141.76 153.222C141.76 154.01 141.615 154.7 141.323 155.29C141.035 155.88 140.63 156.339 140.11 156.667C139.593 156.995 138.99 157.159 138.3 157.159ZM138.3 156.105C138.824 156.105 139.255 155.971 139.593 155.702C139.931 155.434 140.181 155.081 140.343 154.643C140.506 154.206 140.587 153.732 140.587 153.222C140.587 152.711 140.506 152.236 140.343 151.795C140.181 151.354 139.931 150.998 139.593 150.726C139.255 150.454 138.824 150.318 138.3 150.318C137.776 150.318 137.346 150.454 137.008 150.726C136.669 150.998 136.419 151.354 136.257 151.795C136.094 152.236 136.013 152.711 136.013 153.222C136.013 153.732 136.094 154.206 136.257 154.643C136.419 155.081 136.669 155.434 137.008 155.702C137.346 155.971 137.776 156.105 138.3 156.105ZM148.364 153.878V149.364H149.537V157H148.364V155.707H148.284C148.105 156.095 147.827 156.425 147.449 156.697C147.071 156.965 146.594 157.099 146.017 157.099C145.54 157.099 145.116 156.995 144.745 156.786C144.373 156.574 144.082 156.256 143.87 155.832C143.657 155.404 143.551 154.866 143.551 154.216V149.364H144.725V154.136C144.725 154.693 144.88 155.137 145.192 155.469C145.507 155.8 145.908 155.966 146.395 155.966C146.687 155.966 146.983 155.891 147.285 155.742C147.59 155.593 147.845 155.364 148.051 155.056C148.259 154.748 148.364 154.355 148.364 153.878ZM152.859 152.406V157H151.686V149.364H152.82V150.557H152.919C153.098 150.169 153.37 149.857 153.734 149.622C154.099 149.384 154.57 149.264 155.146 149.264C155.663 149.264 156.116 149.37 156.504 149.582C156.891 149.791 157.193 150.109 157.408 150.537C157.624 150.961 157.732 151.498 157.732 152.148V157H156.558V152.227C156.558 151.627 156.403 151.16 156.091 150.825C155.779 150.487 155.352 150.318 154.808 150.318C154.434 150.318 154.099 150.399 153.804 150.562C153.512 150.724 153.282 150.961 153.113 151.273C152.944 151.584 152.859 151.962 152.859 152.406ZM163.197 149.364V150.358H159.239V149.364H163.197ZM160.393 147.534H161.566V154.812C161.566 155.144 161.614 155.393 161.71 155.558C161.81 155.721 161.936 155.83 162.088 155.886C162.244 155.939 162.408 155.966 162.58 155.966C162.709 155.966 162.815 155.959 162.898 155.946C162.981 155.929 163.047 155.916 163.097 155.906L163.336 156.96C163.256 156.99 163.145 157.02 163.003 157.05C162.86 157.083 162.68 157.099 162.461 157.099C162.129 157.099 161.805 157.028 161.486 156.886C161.172 156.743 160.91 156.526 160.701 156.234C160.495 155.943 160.393 155.575 160.393 155.131V147.534ZM170.629 157L168.302 149.364H169.535L171.186 155.21H171.266L172.896 149.364H174.149L175.76 155.19H175.839L177.49 149.364H178.723L176.396 157H175.243L173.572 151.134H173.453L171.783 157H170.629ZM180.274 157V149.364H181.447V157H180.274ZM180.871 148.091C180.642 148.091 180.445 148.013 180.279 147.857C180.117 147.701 180.035 147.514 180.035 147.295C180.035 147.077 180.117 146.889 180.279 146.734C180.445 146.578 180.642 146.5 180.871 146.5C181.099 146.5 181.295 146.578 181.457 146.734C181.623 146.889 181.706 147.077 181.706 147.295C181.706 147.514 181.623 147.701 181.457 147.857C181.295 148.013 181.099 148.091 180.871 148.091ZM186.917 149.364V150.358H182.96V149.364H186.917ZM184.113 147.534H185.287V154.812C185.287 155.144 185.335 155.393 185.431 155.558C185.53 155.721 185.656 155.83 185.809 155.886C185.964 155.939 186.129 155.966 186.301 155.966C186.43 155.966 186.536 155.959 186.619 155.946C186.702 155.929 186.768 155.916 186.818 155.906L187.057 156.96C186.977 156.99 186.866 157.02 186.723 157.05C186.581 157.083 186.4 157.099 186.182 157.099C185.85 157.099 185.525 157.028 185.207 156.886C184.892 156.743 184.63 156.526 184.422 156.234C184.216 155.943 184.113 155.575 184.113 155.131V147.534ZM190.02 152.406V157H188.846V146.818H190.02V150.557H190.119C190.298 150.162 190.566 149.849 190.924 149.617C191.286 149.382 191.766 149.264 192.366 149.264C192.887 149.264 193.342 149.369 193.733 149.577C194.124 149.783 194.428 150.099 194.643 150.527C194.862 150.951 194.971 151.491 194.971 152.148V157H193.798V152.227C193.798 151.621 193.641 151.152 193.326 150.82C193.014 150.486 192.582 150.318 192.028 150.318C191.644 150.318 191.299 150.399 190.994 150.562C190.692 150.724 190.454 150.961 190.278 151.273C190.106 151.584 190.02 151.962 190.02 152.406ZM201.214 157V146.818H207.32V147.912H202.447V151.352H206.862V152.446H202.447V157H201.214ZM211.519 157.179C211.035 157.179 210.596 157.088 210.202 156.906C209.807 156.72 209.494 156.453 209.262 156.105C209.03 155.754 208.914 155.33 208.914 154.832C208.914 154.395 209 154.04 209.173 153.768C209.345 153.493 209.575 153.278 209.864 153.122C210.152 152.966 210.47 152.85 210.818 152.774C211.17 152.695 211.523 152.632 211.877 152.585C212.341 152.526 212.717 152.481 213.006 152.451C213.297 152.418 213.51 152.363 213.642 152.287C213.778 152.211 213.846 152.078 213.846 151.889V151.849C213.846 151.359 213.712 150.978 213.443 150.706C213.178 150.434 212.775 150.298 212.235 150.298C211.675 150.298 211.236 150.421 210.918 150.666C210.6 150.911 210.376 151.173 210.247 151.452L209.133 151.054C209.332 150.59 209.597 150.229 209.928 149.97C210.263 149.708 210.628 149.526 211.022 149.423C211.42 149.317 211.811 149.264 212.195 149.264C212.441 149.264 212.722 149.294 213.041 149.354C213.362 149.41 213.672 149.528 213.97 149.707C214.272 149.886 214.522 150.156 214.721 150.517C214.92 150.878 215.019 151.362 215.019 151.969V157H213.846V155.966H213.786C213.707 156.132 213.574 156.309 213.389 156.498C213.203 156.687 212.956 156.848 212.648 156.98C212.34 157.113 211.963 157.179 211.519 157.179ZM211.698 156.125C212.162 156.125 212.553 156.034 212.872 155.852C213.193 155.669 213.435 155.434 213.597 155.146C213.763 154.857 213.846 154.554 213.846 154.236V153.162C213.796 153.222 213.687 153.276 213.518 153.326C213.352 153.372 213.16 153.414 212.941 153.45C212.726 153.483 212.515 153.513 212.31 153.54C212.108 153.563 211.944 153.583 211.818 153.599C211.513 153.639 211.228 153.704 210.962 153.793C210.701 153.879 210.488 154.01 210.326 154.186C210.167 154.358 210.087 154.594 210.087 154.892C210.087 155.3 210.238 155.608 210.54 155.817C210.845 156.022 211.231 156.125 211.698 156.125ZM220.263 157.159C219.547 157.159 218.931 156.99 218.414 156.652C217.897 156.314 217.499 155.848 217.22 155.255C216.942 154.662 216.803 153.984 216.803 153.222C216.803 152.446 216.945 151.762 217.23 151.168C217.519 150.572 217.92 150.106 218.434 149.771C218.951 149.433 219.554 149.264 220.243 149.264C220.78 149.264 221.264 149.364 221.695 149.562C222.126 149.761 222.479 150.04 222.754 150.398C223.029 150.756 223.2 151.173 223.266 151.651H222.093C222.003 151.303 221.804 150.994 221.496 150.726C221.191 150.454 220.78 150.318 220.263 150.318C219.806 150.318 219.405 150.437 219.06 150.676C218.719 150.911 218.452 151.245 218.259 151.675C218.071 152.103 217.976 152.605 217.976 153.182C217.976 153.772 218.069 154.286 218.255 154.723C218.443 155.161 218.709 155.5 219.05 155.742C219.395 155.984 219.799 156.105 220.263 156.105C220.568 156.105 220.845 156.052 221.093 155.946C221.342 155.84 221.552 155.688 221.725 155.489C221.897 155.29 222.02 155.051 222.093 154.773H223.266C223.2 155.223 223.036 155.629 222.774 155.991C222.515 156.349 222.172 156.634 221.745 156.846C221.32 157.055 220.826 157.159 220.263 157.159ZM228.183 157.159C227.447 157.159 226.812 156.997 226.279 156.672C225.748 156.344 225.339 155.886 225.051 155.3C224.766 154.71 224.623 154.024 224.623 153.241C224.623 152.459 224.766 151.77 225.051 151.173C225.339 150.573 225.74 150.106 226.254 149.771C226.771 149.433 227.374 149.264 228.063 149.264C228.461 149.264 228.854 149.33 229.242 149.463C229.63 149.596 229.983 149.811 230.301 150.109C230.619 150.404 230.872 150.795 231.061 151.283C231.25 151.77 231.345 152.37 231.345 153.082V153.58H225.458V152.565H230.152C230.152 152.134 230.065 151.75 229.893 151.412C229.724 151.074 229.482 150.807 229.167 150.612C228.856 150.416 228.488 150.318 228.063 150.318C227.596 150.318 227.192 150.434 226.85 150.666C226.512 150.895 226.252 151.193 226.07 151.561C225.888 151.929 225.796 152.323 225.796 152.744V153.42C225.796 153.997 225.896 154.486 226.095 154.887C226.297 155.285 226.577 155.588 226.935 155.797C227.293 156.002 227.709 156.105 228.183 156.105C228.491 156.105 228.769 156.062 229.018 155.976C229.27 155.886 229.487 155.754 229.669 155.578C229.852 155.399 229.992 155.177 230.092 154.912L231.225 155.23C231.106 155.615 230.906 155.953 230.624 156.244C230.342 156.533 229.994 156.758 229.58 156.92C229.166 157.08 228.7 157.159 228.183 157.159ZM82.0186 168.818V179H80.7857V168.818H82.0186ZM87.6328 179H84.4908V168.818H87.772C88.7597 168.818 89.6049 169.022 90.3075 169.43C91.0102 169.834 91.5488 170.416 91.9233 171.175C92.2978 171.93 92.4851 172.835 92.4851 173.889C92.4851 174.95 92.2962 175.863 91.9183 176.629C91.5405 177.391 90.9903 177.978 90.2678 178.388C89.5452 178.796 88.6669 179 87.6328 179ZM85.7237 177.906H87.5533C88.3951 177.906 89.0928 177.744 89.6463 177.419C90.1998 177.094 90.6125 176.632 90.8842 176.032C91.156 175.432 91.2919 174.718 91.2919 173.889C91.2919 173.067 91.1577 172.36 90.8892 171.766C90.6207 171.17 90.2197 170.712 89.6861 170.394C89.1525 170.073 88.4879 169.912 87.6925 169.912H85.7237V177.906ZM98.4908 179V168.818H101.931C102.727 168.818 103.379 168.954 103.89 169.226C104.4 169.494 104.778 169.864 105.023 170.335C105.269 170.805 105.391 171.34 105.391 171.94C105.391 172.54 105.269 173.072 105.023 173.536C104.778 174 104.402 174.365 103.895 174.63C103.388 174.892 102.74 175.023 101.951 175.023H99.1669V173.909H101.911C102.455 173.909 102.892 173.83 103.224 173.67C103.558 173.511 103.8 173.286 103.95 172.994C104.102 172.699 104.178 172.348 104.178 171.94C104.178 171.533 104.102 171.176 103.95 170.871C103.797 170.567 103.554 170.331 103.219 170.165C102.884 169.996 102.442 169.912 101.891 169.912H99.7237V179H98.4908ZM103.283 174.426L105.789 179H104.357L101.891 174.426H103.283ZM110.406 179.159C109.671 179.159 109.036 178.997 108.502 178.672C107.972 178.344 107.563 177.886 107.274 177.3C106.989 176.71 106.847 176.024 106.847 175.241C106.847 174.459 106.989 173.77 107.274 173.173C107.563 172.573 107.964 172.106 108.477 171.771C108.994 171.433 109.598 171.264 110.287 171.264C110.685 171.264 111.078 171.33 111.465 171.463C111.853 171.596 112.206 171.811 112.524 172.109C112.843 172.404 113.096 172.795 113.285 173.283C113.474 173.77 113.568 174.37 113.568 175.082V175.58H107.682V174.565H112.375C112.375 174.134 112.289 173.75 112.117 173.412C111.948 173.074 111.706 172.807 111.391 172.612C111.079 172.416 110.711 172.318 110.287 172.318C109.82 172.318 109.415 172.434 109.074 172.666C108.736 172.895 108.476 173.193 108.294 173.561C108.111 173.929 108.02 174.323 108.02 174.744V175.42C108.02 175.997 108.119 176.486 108.318 176.887C108.521 177.285 108.801 177.588 109.159 177.797C109.517 178.002 109.932 178.105 110.406 178.105C110.715 178.105 110.993 178.062 111.242 177.976C111.494 177.886 111.711 177.754 111.893 177.578C112.075 177.399 112.216 177.177 112.316 176.912L113.449 177.23C113.33 177.615 113.129 177.953 112.847 178.244C112.566 178.533 112.218 178.758 111.803 178.92C111.389 179.08 110.923 179.159 110.406 179.159ZM118.455 179.159C117.74 179.159 117.123 178.99 116.606 178.652C116.089 178.314 115.691 177.848 115.413 177.255C115.134 176.662 114.995 175.984 114.995 175.222C114.995 174.446 115.138 173.762 115.423 173.168C115.711 172.572 116.112 172.106 116.626 171.771C117.143 171.433 117.746 171.264 118.436 171.264C118.972 171.264 119.456 171.364 119.887 171.562C120.318 171.761 120.671 172.04 120.946 172.398C121.221 172.756 121.392 173.173 121.458 173.651H120.285C120.195 173.303 119.997 172.994 119.688 172.726C119.383 172.454 118.972 172.318 118.455 172.318C117.998 172.318 117.597 172.437 117.252 172.676C116.911 172.911 116.644 173.245 116.452 173.675C116.263 174.103 116.169 174.605 116.169 175.182C116.169 175.772 116.261 176.286 116.447 176.723C116.636 177.161 116.901 177.5 117.242 177.742C117.587 177.984 117.991 178.105 118.455 178.105C118.76 178.105 119.037 178.052 119.286 177.946C119.534 177.84 119.745 177.688 119.917 177.489C120.089 177.29 120.212 177.051 120.285 176.773H121.458C121.392 177.223 121.228 177.629 120.966 177.991C120.708 178.349 120.365 178.634 119.937 178.846C119.513 179.055 119.019 179.159 118.455 179.159ZM126.276 179.159C125.586 179.159 124.981 178.995 124.461 178.667C123.944 178.339 123.54 177.88 123.248 177.29C122.96 176.7 122.816 176.01 122.816 175.222C122.816 174.426 122.96 173.732 123.248 173.138C123.54 172.545 123.944 172.085 124.461 171.756C124.981 171.428 125.586 171.264 126.276 171.264C126.965 171.264 127.568 171.428 128.085 171.756C128.606 172.085 129.01 172.545 129.298 173.138C129.59 173.732 129.736 174.426 129.736 175.222C129.736 176.01 129.59 176.7 129.298 177.29C129.01 177.88 128.606 178.339 128.085 178.667C127.568 178.995 126.965 179.159 126.276 179.159ZM126.276 178.105C126.799 178.105 127.23 177.971 127.568 177.702C127.906 177.434 128.157 177.081 128.319 176.643C128.481 176.206 128.563 175.732 128.563 175.222C128.563 174.711 128.481 174.236 128.319 173.795C128.157 173.354 127.906 172.998 127.568 172.726C127.23 172.454 126.799 172.318 126.276 172.318C125.752 172.318 125.321 172.454 124.983 172.726C124.645 172.998 124.395 173.354 124.232 173.795C124.07 174.236 123.989 174.711 123.989 175.222C123.989 175.732 124.07 176.206 124.232 176.643C124.395 177.081 124.645 177.434 124.983 177.702C125.321 177.971 125.752 178.105 126.276 178.105ZM134.609 182.023C134.043 182.023 133.555 181.95 133.148 181.804C132.74 181.661 132.4 181.473 132.129 181.237C131.86 181.005 131.646 180.757 131.487 180.491L132.422 179.835C132.528 179.974 132.662 180.134 132.825 180.312C132.987 180.495 133.209 180.652 133.491 180.785C133.776 180.921 134.149 180.989 134.609 180.989C135.226 180.989 135.735 180.839 136.136 180.541C136.537 180.243 136.737 179.776 136.737 179.139V177.588H136.638C136.552 177.727 136.429 177.9 136.27 178.105C136.114 178.307 135.889 178.488 135.594 178.647C135.302 178.803 134.908 178.881 134.411 178.881C133.794 178.881 133.241 178.735 132.75 178.443C132.263 178.152 131.877 177.727 131.592 177.17C131.31 176.614 131.169 175.937 131.169 175.142C131.169 174.36 131.307 173.679 131.582 173.099C131.857 172.515 132.24 172.065 132.73 171.746C133.221 171.425 133.787 171.264 134.43 171.264C134.928 171.264 135.322 171.347 135.614 171.513C135.909 171.675 136.134 171.861 136.29 172.07C136.449 172.275 136.571 172.444 136.658 172.577H136.777V171.364H137.911V179.219C137.911 179.875 137.761 180.409 137.463 180.82C137.168 181.234 136.77 181.537 136.27 181.729C135.773 181.925 135.219 182.023 134.609 182.023ZM134.57 177.827C135.04 177.827 135.438 177.719 135.763 177.504C136.088 177.288 136.335 176.978 136.504 176.574C136.673 176.17 136.757 175.686 136.757 175.122C136.757 174.572 136.674 174.086 136.509 173.665C136.343 173.245 136.098 172.915 135.773 172.676C135.448 172.437 135.047 172.318 134.57 172.318C134.072 172.318 133.658 172.444 133.327 172.696C132.999 172.948 132.752 173.286 132.586 173.71C132.424 174.134 132.342 174.605 132.342 175.122C132.342 175.652 132.425 176.121 132.591 176.529C132.76 176.933 133.009 177.252 133.337 177.484C133.668 177.712 134.079 177.827 134.57 177.827ZM141.232 174.406V179H140.058V171.364H141.192V172.557H141.291C141.47 172.169 141.742 171.857 142.107 171.622C142.471 171.384 142.942 171.264 143.518 171.264C144.036 171.264 144.488 171.37 144.876 171.582C145.263 171.791 145.565 172.109 145.781 172.537C145.996 172.961 146.104 173.498 146.104 174.148V179H144.93V174.227C144.93 173.627 144.775 173.16 144.463 172.825C144.152 172.487 143.724 172.318 143.18 172.318C142.806 172.318 142.471 172.399 142.176 172.562C141.884 172.724 141.654 172.961 141.485 173.273C141.316 173.584 141.232 173.962 141.232 174.406ZM148.248 179V171.364H149.421V179H148.248ZM148.844 170.091C148.616 170.091 148.418 170.013 148.253 169.857C148.09 169.701 148.009 169.514 148.009 169.295C148.009 169.077 148.09 168.889 148.253 168.734C148.418 168.578 148.616 168.5 148.844 168.5C149.073 168.5 149.269 168.578 149.431 168.734C149.597 168.889 149.68 169.077 149.68 169.295C149.68 169.514 149.597 169.701 149.431 169.857C149.269 170.013 149.073 170.091 148.844 170.091ZM154.891 171.364V172.358H150.934V171.364H154.891ZM152.087 169.534H153.26V176.812C153.26 177.144 153.308 177.393 153.404 177.558C153.504 177.721 153.63 177.83 153.782 177.886C153.938 177.939 154.102 177.966 154.275 177.966C154.404 177.966 154.51 177.959 154.593 177.946C154.676 177.929 154.742 177.916 154.792 177.906L155.03 178.96C154.951 178.99 154.84 179.02 154.697 179.05C154.555 179.083 154.374 179.099 154.155 179.099C153.824 179.099 153.499 179.028 153.181 178.886C152.866 178.743 152.604 178.526 152.395 178.234C152.19 177.943 152.087 177.575 152.087 177.131V169.534ZM156.656 179V171.364H157.829V179H156.656ZM157.252 170.091C157.024 170.091 156.827 170.013 156.661 169.857C156.498 169.701 156.417 169.514 156.417 169.295C156.417 169.077 156.498 168.889 156.661 168.734C156.827 168.578 157.024 168.5 157.252 168.5C157.481 168.5 157.677 168.578 157.839 168.734C158.005 168.889 158.088 169.077 158.088 169.295C158.088 169.514 158.005 169.701 157.839 169.857C157.677 170.013 157.481 170.091 157.252 170.091ZM163.08 179.159C162.391 179.159 161.786 178.995 161.266 178.667C160.749 178.339 160.344 177.88 160.053 177.29C159.764 176.7 159.62 176.01 159.62 175.222C159.62 174.426 159.764 173.732 160.053 173.138C160.344 172.545 160.749 172.085 161.266 171.756C161.786 171.428 162.391 171.264 163.08 171.264C163.77 171.264 164.373 171.428 164.89 171.756C165.41 172.085 165.815 172.545 166.103 173.138C166.395 173.732 166.541 174.426 166.541 175.222C166.541 176.01 166.395 176.7 166.103 177.29C165.815 177.88 165.41 178.339 164.89 178.667C164.373 178.995 163.77 179.159 163.08 179.159ZM163.08 178.105C163.604 178.105 164.035 177.971 164.373 177.702C164.711 177.434 164.961 177.081 165.124 176.643C165.286 176.206 165.367 175.732 165.367 175.222C165.367 174.711 165.286 174.236 165.124 173.795C164.961 173.354 164.711 172.998 164.373 172.726C164.035 172.454 163.604 172.318 163.08 172.318C162.557 172.318 162.126 172.454 161.788 172.726C161.45 172.998 161.2 173.354 161.037 173.795C160.875 174.236 160.794 174.711 160.794 175.222C160.794 175.732 160.875 176.206 161.037 176.643C161.2 177.081 161.45 177.434 161.788 177.702C162.126 177.971 162.557 178.105 163.08 178.105ZM169.505 174.406V179H168.332V171.364H169.465V172.557H169.565C169.744 172.169 170.015 171.857 170.38 171.622C170.745 171.384 171.215 171.264 171.792 171.264C172.309 171.264 172.761 171.37 173.149 171.582C173.537 171.791 173.839 172.109 174.054 172.537C174.269 172.961 174.377 173.498 174.377 174.148V179H173.204V174.227C173.204 173.627 173.048 173.16 172.737 172.825C172.425 172.487 171.997 172.318 171.454 172.318C171.079 172.318 170.745 172.399 170.45 172.562C170.158 172.724 169.928 172.961 169.759 173.273C169.589 173.584 169.505 173.962 169.505 174.406Z" fill="#FF0000" style="fill:#FF0000;fill:color(display-p3 1.0000 0.0000 0.0000);fill-opacity:1;"/>
</svg>
