<svg width="22" height="22" viewBox="0 0 22 22" fill="none" xmlns="http://www.w3.org/2000/svg">
<g clip-path="url(#clip0_2321_690)">
<path d="M20.4333 9.42624L11.7698 9.42583C11.3872 9.42583 11.0771 9.73588 11.0771 10.1184V12.886C11.0771 13.2685 11.3872 13.5786 11.7698 13.5786H16.6485C16.1143 14.9651 15.1172 16.1262 13.845 16.8639L15.9253 20.4651C19.2623 18.5351 21.2352 15.1488 21.2352 11.3581C21.2352 10.8184 21.1954 10.4326 21.1159 9.99809C21.0554 9.66801 20.7688 9.42624 20.4333 9.42624Z" fill="#167EE6"/>
<path d="M10.6162 17.737C8.22861 17.737 6.1443 16.4325 5.02486 14.5021L1.42383 16.5777C3.25637 19.7538 6.68932 21.8926 10.6162 21.8926C12.5425 21.8926 14.3602 21.3739 15.9261 20.47V20.4651L13.8458 16.8639C12.8942 17.4158 11.7931 17.737 10.6162 17.737Z" fill="#12B347"/>
<path d="M15.9261 20.47V20.4651L13.8458 16.8639C12.8943 17.4157 11.7932 17.737 10.6162 17.737V21.8926C12.5426 21.8926 14.3604 21.3739 15.9261 20.47Z" fill="#0F993E"/>
<path d="M4.15169 11.2727C4.15169 10.0959 4.47285 8.99485 5.02463 8.04334L1.42359 5.96774C0.514723 7.52865 -0.00390625 9.34141 -0.00390625 11.2727C-0.00390625 13.204 0.514723 15.0168 1.42359 16.5777L5.02463 14.5021C4.47285 13.5506 4.15169 12.4496 4.15169 11.2727Z" fill="#FFD500"/>
<path d="M10.6162 4.80848C12.1731 4.80848 13.6032 5.36171 14.7202 6.28194C14.9958 6.50894 15.3963 6.49256 15.6488 6.24013L17.6097 4.27919C17.8961 3.99279 17.8757 3.52398 17.5697 3.25857C15.6982 1.63494 13.2631 0.652893 10.6162 0.652893C6.68932 0.652893 3.25637 2.79167 1.42383 5.96775L5.02486 8.04334C6.1443 6.11298 8.22861 4.80848 10.6162 4.80848Z" fill="#FF4B26"/>
<path d="M14.7203 6.28194C14.9959 6.50894 15.3964 6.49256 15.6488 6.24013L17.6097 4.27919C17.8961 3.99279 17.8757 3.52398 17.5698 3.25857C15.6983 1.6349 13.2632 0.652893 10.6162 0.652893V4.80848C12.1731 4.80848 13.6032 5.36171 14.7203 6.28194Z" fill="#D93F21"/>
</g>
<defs>
<clipPath id="clip0_2321_690">
<rect width="21.2397" height="21.2397" fill="white" transform="translate(-0.00390625 0.652893)"/>
</clipPath>
</defs>
</svg>
