<svg width="14" height="11" viewBox="0 0 14 11" fill="none" xmlns="http://www.w3.org/2000/svg">
<path d="M7.82628 0.94445V2.31806" stroke="white" style="stroke:white;stroke-opacity:1;" stroke-width="1.27712" stroke-linecap="round" stroke-linejoin="round"/>
<path d="M7.82628 8.61272V9.76155" stroke="white" style="stroke:white;stroke-opacity:1;" stroke-width="1.27712" stroke-linecap="round" stroke-linejoin="round"/>
<path d="M7.82628 6.6627V3.92626" stroke="white" style="stroke:white;stroke-opacity:1;" stroke-width="1.27712" stroke-linecap="round" stroke-linejoin="round"/>
<path fill-rule="evenodd" clip-rule="evenodd" d="M10.5806 9.8841C11.6148 9.8841 12.4525 9.05684 12.4525 8.03548V6.56396C11.7681 6.56396 11.217 6.01966 11.217 5.34382C11.217 4.66798 11.7681 4.1231 12.4525 4.1231L12.4519 2.65099C12.4519 1.62963 11.6136 0.802376 10.58 0.802376H2.97279C1.93916 0.802376 1.10089 1.62963 1.10089 2.65099L1.1003 4.17104C1.78465 4.17104 2.3358 4.66798 2.3358 5.34382C2.3358 6.01966 1.78465 6.56396 1.1003 6.56396V8.03548C1.1003 9.05684 1.93798 9.8841 2.9722 9.8841H10.5806Z" stroke="white" style="stroke:white;stroke-opacity:1;" stroke-width="1.27712" stroke-linecap="round" stroke-linejoin="round"/>
</svg>
