<svg width="20" height="23" viewBox="0 0 20 23" fill="none" xmlns="http://www.w3.org/2000/svg">
<path fill-rule="evenodd" clip-rule="evenodd" d="M1.47446 13.2871V13.0681C1.50658 12.4202 1.71423 11.7925 2.07599 11.2496C2.67813 10.5975 3.09034 9.79831 3.26935 8.93598C3.26935 8.2695 3.26935 7.5935 3.32756 6.92703C3.62832 3.71842 6.80091 1.5 9.93469 1.5H10.0123C13.1461 1.5 16.3187 3.71842 16.6291 6.92703C16.6874 7.5935 16.6291 8.2695 16.6776 8.93598C16.8591 9.8003 17.2709 10.6019 17.871 11.2591C18.2355 11.7972 18.4434 12.4227 18.4725 13.0681V13.2776C18.4942 14.148 18.1944 14.9968 17.6285 15.6674C16.8806 16.4515 15.8657 16.9393 14.776 17.0384C11.5806 17.3812 8.35667 17.3812 5.16126 17.0384C4.07278 16.935 3.05939 16.4479 2.30884 15.6674C1.75163 14.9963 1.45587 14.1526 1.47446 13.2871Z" stroke="white" style="stroke:white;stroke-opacity:1;" stroke-width="1.5" stroke-linecap="round" stroke-linejoin="round"/>
<path d="M7.52856 20.3518C8.02784 20.9784 8.76102 21.384 9.56586 21.4787C10.3707 21.5734 11.1808 21.3495 11.8169 20.8564C12.0125 20.7106 12.1886 20.541 12.3408 20.3518" stroke="white" style="stroke:white;stroke-opacity:1;" stroke-width="1.5" stroke-linecap="round" stroke-linejoin="round"/>
</svg>
