<svg width="36" height="35" viewBox="0 0 36 35" fill="none" xmlns="http://www.w3.org/2000/svg">
<path fill-rule="evenodd" clip-rule="evenodd" d="M17.8536 4.50069e-09C20.1458 -1.07399e-05 22.4156 0.451472 24.5334 1.32867C26.6511 2.20587 28.5754 3.4916 30.1962 5.11246C31.8171 6.73332 33.1029 8.65756 33.9801 10.7753C34.8573 12.8931 35.3088 15.1629 35.3088 17.4551C35.3088 27.0954 27.4938 34.9103 17.8536 34.9103C8.2134 34.9103 0.398422 27.0954 0.398422 17.4551C0.398422 7.81498 8.2134 2.12096e-09 17.8536 4.50069e-09ZM19.5991 19.2007L16.1081 19.2007C11.7867 19.2007 8.07667 21.8179 6.4765 25.5539C9.00837 29.1042 13.1606 31.4193 17.8536 31.4193C22.5465 31.4193 26.6987 29.1042 29.2307 25.5537C27.6305 21.8179 23.9205 19.2007 19.5991 19.2007ZM17.8536 5.23655C14.9615 5.23655 12.617 7.58105 12.617 10.4731C12.617 13.3651 14.9615 15.7096 17.8536 15.7096C20.7456 15.7096 23.0901 13.3651 23.0901 10.4731C23.0901 7.58105 20.7457 5.23655 17.8536 5.23655Z" fill="white" style="fill:white;fill-opacity:1;"/>
</svg>
